# xmcd CD database file
#
# Track frame offsets:
#	150
#	28625
#	48054
#	67299
#	91290
#	119071
#	141310
#	172138
#	195926
#	216200
#	248805
#
# Disc length: 3702 seconds
#
# Revision: 0
# Processed by: cddbd v1.5.2PL0 Copyright (c) Steve Scherf et al.
# Submitted via: jetAudio 7
#
DISCID=a40e740b
DTITLE=Joe Louis Walker - Witness To The Blues
DYEAR=1900
DGENRE=Blues
TTITLE0=It'S A Shame
TTITLE1=Midnight Train
TTITLE2=Lover'S Holiday ( Duet With Shemekia Copeland)
TTITLE3=Hustlin'
TTITLE4=Witness
TTITLE5=Rollin' and Tumblin'
TTITLE6=Highview
TTITLE7=I Got What You Need
TTITLE8=Keep On Believin'
TTITLE9=100% More Man
TTITLE10=Sugar Mama
EXTD=
EXTT0=
EXTT1=
EXTT2=
EXTT3=
EXTT4=
EXTT5=
EXTT6=
EXTT7=
EXTT8=
EXTT9=
EXTT10=
PLAYORDER=
